<svg viewBox="-16 -32 880 192" width="880" height="192" xmlns="http://www.w3.org/2000/svg"><desc>Generated with https://github.com/Platane/snk</desc><style>:root{--cb:#1b1f230a;--cs:#FF006E;--ce:#330016;--c0:#330016;--c1:#66002d;--c2:#990044;--c3:#cc005b;--c4:#FF006E}.c{shape-rendering:geometricPrecision;fill:var(--ce);stroke-width:1px;stroke:var(--cb);animation:none 46100ms linear infinite;width:12px;height:12px}@keyframes c0{76.35%{fill:var(--c3)}76.37%,100%{fill:var(--ce)}}.c.c0{fill:var(--c3);animation-name:c0}@keyframes c1{6.28%{fill:var(--c1)}6.3%,100%{fill:var(--ce)}}.c.c1{fill:var(--c1);animation-name:c1}@keyframes c2{7.37%{fill:var(--c1)}7.39%,100%{fill:var(--ce)}}.c.c2{fill:var(--c1);animation-name:c2}@keyframes c3{5.85%{fill:var(--c1)}5.87%,100%{fill:var(--ce)}}.c.c3{fill:var(--c1);animation-name:c3}@keyframes c4{79.38%{fill:var(--c4)}79.4%,100%{fill:var(--ce)}}.c.c4{fill:var(--c4);animation-name:c4}@keyframes c5{4.11%{fill:var(--c1)}4.13%,100%{fill:var(--ce)}}.c.c5{fill:var(--c1);animation-name:c5}@keyframes c6{78.08%{fill:var(--c4)}78.1%,100%{fill:var(--ce)}}.c.c6{fill:var(--c4);animation-name:c6}@keyframes c7{5.41%{fill:var(--c1)}5.43%,100%{fill:var(--ce)}}.c.c7{fill:var(--c1);animation-name:c7}@keyframes c8{5.63%{fill:var(--c1)}5.65%,100%{fill:var(--ce)}}.c.c8{fill:var(--c1);animation-name:c8}@keyframes c9{4.98%{fill:var(--c1)}5%,100%{fill:var(--ce)}}.c.c9{fill:var(--c1);animation-name:c9}@keyframes ca{77.21%{fill:var(--c4)}77.23%,100%{fill:var(--ce)}}.c.ca{fill:var(--c4);animation-name:ca}@keyframes cb{8.23%{fill:var(--c1)}8.25%,100%{fill:var(--ce)}}.c.cb{fill:var(--c1);animation-name:cb}@keyframes cc{8.88%{fill:var(--c1)}8.9%,100%{fill:var(--ce)}}.c.cc{fill:var(--c1);animation-name:cc}@keyframes cd{38.38%{fill:var(--c1)}38.4%,100%{fill:var(--ce)}}.c.cd{fill:var(--c1);animation-name:cd}@keyframes ce{9.75%{fill:var(--c1)}9.77%,100%{fill:var(--ce)}}.c.ce{fill:var(--c1);animation-name:ce}@keyframes cf{38.82%{fill:var(--c1)}38.84%,100%{fill:var(--ce)}}.c.cf{fill:var(--c1);animation-name:cf}@keyframes cg{9.32%{fill:var(--c1)}9.34%,100%{fill:var(--ce)}}.c.cg{fill:var(--c1);animation-name:cg}@keyframes ch{10.84%{fill:var(--c1)}10.86%,100%{fill:var(--ce)}}.c.ch{fill:var(--c1);animation-name:ch}@keyframes ci{58.78%{fill:var(--c2)}58.8%,100%{fill:var(--ce)}}.c.ci{fill:var(--c2);animation-name:ci}@keyframes cj{17.34%{fill:var(--c1)}17.36%,100%{fill:var(--ce)}}.c.cj{fill:var(--c1);animation-name:cj}@keyframes ck{17.56%{fill:var(--c1)}17.58%,100%{fill:var(--ce)}}.c.ck{fill:var(--c1);animation-name:ck}@keyframes cl{17.78%{fill:var(--c1)}17.8%,100%{fill:var(--ce)}}.c.cl{fill:var(--c1);animation-name:cl}@keyframes cm{16.04%{fill:var(--c1)}16.06%,100%{fill:var(--ce)}}.c.cm{fill:var(--c1);animation-name:cm}@keyframes cn{11.05%{fill:var(--c1)}11.07%,100%{fill:var(--ce)}}.c.cn{fill:var(--c1);animation-name:cn}@keyframes co{15.61%{fill:var(--c1)}15.63%,100%{fill:var(--ce)}}.c.co{fill:var(--c1);animation-name:co}@keyframes cp{15.39%{fill:var(--c1)}15.41%,100%{fill:var(--ce)}}.c.cp{fill:var(--c1);animation-name:cp}@keyframes cq{17.99%{fill:var(--c1)}18.01%,100%{fill:var(--ce)}}.c.cq{fill:var(--c1);animation-name:cq}@keyframes cr{61.6%{fill:var(--c3)}61.62%,100%{fill:var(--ce)}}.c.cr{fill:var(--c3);animation-name:cr}@keyframes cs{16.26%{fill:var(--c1)}16.28%,100%{fill:var(--ce)}}.c.cs{fill:var(--c1);animation-name:cs}@keyframes ct{11.27%{fill:var(--c1)}11.29%,100%{fill:var(--ce)}}.c.ct{fill:var(--c1);animation-name:ct}@keyframes cu{58.34%{fill:var(--c2)}58.36%,100%{fill:var(--ce)}}.c.cu{fill:var(--c2);animation-name:cu}@keyframes cv{60.73%{fill:var(--c3)}60.75%,100%{fill:var(--ce)}}.c.cv{fill:var(--c3);animation-name:cv}@keyframes cw{14.96%{fill:var(--c1)}14.98%,100%{fill:var(--ce)}}.c.cw{fill:var(--c1);animation-name:cw}@keyframes cx{11.49%{fill:var(--c1)}11.51%,100%{fill:var(--ce)}}.c.cx{fill:var(--c1);animation-name:cx}@keyframes cy{14.74%{fill:var(--c1)}14.76%,100%{fill:var(--ce)}}.c.cy{fill:var(--c1);animation-name:cy}@keyframes cz{11.92%{fill:var(--c1)}11.94%,100%{fill:var(--ce)}}.c.cz{fill:var(--c1);animation-name:cz}@keyframes c10{14.31%{fill:var(--c1)}14.33%,100%{fill:var(--ce)}}.c.c10{fill:var(--c1);animation-name:c10}@keyframes c11{60.08%{fill:var(--c2)}60.1%,100%{fill:var(--ce)}}.c.c11{fill:var(--c2);animation-name:c11}@keyframes c12{12.14%{fill:var(--c1)}12.16%,100%{fill:var(--ce)}}.c.c12{fill:var(--c1);animation-name:c12}@keyframes c13{13.87%{fill:var(--c1)}13.89%,100%{fill:var(--ce)}}.c.c13{fill:var(--c1);animation-name:c13}@keyframes c14{19.3%{fill:var(--c1)}19.32%,100%{fill:var(--ce)}}.c.c14{fill:var(--c1);animation-name:c14}@keyframes c15{12.79%{fill:var(--c1)}12.81%,100%{fill:var(--ce)}}.c.c15{fill:var(--c1);animation-name:c15}@keyframes c16{55.52%{fill:var(--c2)}55.54%,100%{fill:var(--ce)}}.c.c16{fill:var(--c2);animation-name:c16}@keyframes c17{21.9%{fill:var(--c1)}21.92%,100%{fill:var(--ce)}}.c.c17{fill:var(--c1);animation-name:c17}@keyframes c18{22.33%{fill:var(--c1)}22.35%,100%{fill:var(--ce)}}.c.c18{fill:var(--c1);animation-name:c18}@keyframes c19{20.81%{fill:var(--c1)}20.83%,100%{fill:var(--ce)}}.c.c19{fill:var(--c1);animation-name:c19}@keyframes c1a{20.6%{fill:var(--c1)}20.62%,100%{fill:var(--ce)}}.c.c1a{fill:var(--c1);animation-name:c1a}@keyframes c1b{34.26%{fill:var(--c1)}34.28%,100%{fill:var(--ce)}}.c.c1b{fill:var(--c1);animation-name:c1b}@keyframes c1c{21.47%{fill:var(--c1)}21.49%,100%{fill:var(--ce)}}.c.c1c{fill:var(--c1);animation-name:c1c}@keyframes c1d{21.03%{fill:var(--c1)}21.05%,100%{fill:var(--ce)}}.c.c1d{fill:var(--c1);animation-name:c1d}@keyframes c1e{49.66%{fill:var(--c2)}49.68%,100%{fill:var(--ce)}}.c.c1e{fill:var(--c2);animation-name:c1e}@keyframes c1f{90.23%{fill:var(--c4)}90.25%,100%{fill:var(--ce)}}.c.c1f{fill:var(--c4);animation-name:c1f}@keyframes c1g{47.93%{fill:var(--c2)}47.95%,100%{fill:var(--ce)}}.c.c1g{fill:var(--c2);animation-name:c1g}@keyframes c1h{32.53%{fill:var(--c1)}32.55%,100%{fill:var(--ce)}}.c.c1h{fill:var(--c1);animation-name:c1h}@keyframes c1i{22.98%{fill:var(--c1)}23%,100%{fill:var(--ce)}}.c.c1i{fill:var(--c1);animation-name:c1i}@keyframes c1j{48.8%{fill:var(--c2)}48.82%,100%{fill:var(--ce)}}.c.c1j{fill:var(--c2);animation-name:c1j}@keyframes c1k{65.07%{fill:var(--c3)}65.09%,100%{fill:var(--ce)}}.c.c1k{fill:var(--c3);animation-name:c1k}@keyframes c1l{23.42%{fill:var(--c1)}23.44%,100%{fill:var(--ce)}}.c.c1l{fill:var(--c1);animation-name:c1l}@keyframes c1m{46.84%{fill:var(--c2)}46.86%,100%{fill:var(--ce)}}.c.c1m{fill:var(--c2);animation-name:c1m}@keyframes c1n{47.06%{fill:var(--c2)}47.08%,100%{fill:var(--ce)}}.c.c1n{fill:var(--c2);animation-name:c1n}@keyframes c1o{86.32%{fill:var(--c4)}86.34%,100%{fill:var(--ce)}}.c.c1o{fill:var(--c4);animation-name:c1o}@keyframes c1p{86.11%{fill:var(--c4)}86.13%,100%{fill:var(--ce)}}.c.c1p{fill:var(--c4);animation-name:c1p}@keyframes c1q{85.89%{fill:var(--c4)}85.91%,100%{fill:var(--ce)}}.c.c1q{fill:var(--c4);animation-name:c1q}@keyframes c1r{30.79%{fill:var(--c1)}30.81%,100%{fill:var(--ce)}}.c.c1r{fill:var(--c1);animation-name:c1r}@keyframes c1s{31.01%{fill:var(--c1)}31.03%,100%{fill:var(--ce)}}.c.c1s{fill:var(--c1);animation-name:c1s}@keyframes c1t{86.76%{fill:var(--c4)}86.78%,100%{fill:var(--ce)}}.c.c1t{fill:var(--c4);animation-name:c1t}@keyframes c1u{50.97%{fill:var(--c2)}50.99%,100%{fill:var(--ce)}}.c.c1u{fill:var(--c2);animation-name:c1u}@keyframes c1v{24.29%{fill:var(--c1)}24.31%,100%{fill:var(--ce)}}.c.c1v{fill:var(--c1);animation-name:c1v}@keyframes c1w{30.58%{fill:var(--c1)}30.6%,100%{fill:var(--ce)}}.c.c1w{fill:var(--c1);animation-name:c1w}@keyframes c1x{31.23%{fill:var(--c1)}31.25%,100%{fill:var(--ce)}}.c.c1x{fill:var(--c1);animation-name:c1x}@keyframes c1y{86.97%{fill:var(--c4)}86.99%,100%{fill:var(--ce)}}.c.c1y{fill:var(--c4);animation-name:c1y}@keyframes c1z{26.02%{fill:var(--c1)}26.04%,100%{fill:var(--ce)}}.c.c1z{fill:var(--c1);animation-name:c1z}@keyframes c20{25.8%{fill:var(--c1)}25.82%,100%{fill:var(--ce)}}.c.c20{fill:var(--c1);animation-name:c20}@keyframes c21{26.89%{fill:var(--c1)}26.91%,100%{fill:var(--ce)}}.c.c21{fill:var(--c1);animation-name:c21}@keyframes c22{24.5%{fill:var(--c1)}24.52%,100%{fill:var(--ce)}}.c.c22{fill:var(--c1);animation-name:c22}@keyframes c23{68.54%{fill:var(--c3)}68.56%,100%{fill:var(--ce)}}.c.c23{fill:var(--c3);animation-name:c23}@keyframes c24{46.19%{fill:var(--c2)}46.21%,100%{fill:var(--ce)}}.c.c24{fill:var(--c2);animation-name:c24}@keyframes c25{67.02%{fill:var(--c3)}67.04%,100%{fill:var(--ce)}}.c.c25{fill:var(--c3);animation-name:c25}@keyframes c26{25.59%{fill:var(--c1)}25.61%,100%{fill:var(--ce)}}.c.c26{fill:var(--c1);animation-name:c26}@keyframes c27{87.84%{fill:var(--c4)}87.86%,100%{fill:var(--ce)}}.c.c27{fill:var(--c4);animation-name:c27}@keyframes c28{24.72%{fill:var(--c1)}24.74%,100%{fill:var(--ce)}}.c.c28{fill:var(--c1);animation-name:c28}@keyframes c29{29.71%{fill:var(--c1)}29.73%,100%{fill:var(--ce)}}.c.c29{fill:var(--c1);animation-name:c29}@keyframes c2a{29.49%{fill:var(--c1)}29.51%,100%{fill:var(--ce)}}.c.c2a{fill:var(--c1);animation-name:c2a}@keyframes c2b{45.76%{fill:var(--c2)}45.78%,100%{fill:var(--ce)}}.c.c2b{fill:var(--c2);animation-name:c2b}@keyframes c2c{45.54%{fill:var(--c1)}45.56%,100%{fill:var(--ce)}}.c.c2c{fill:var(--c1);animation-name:c2c}@keyframes c2d{25.37%{fill:var(--c1)}25.39%,100%{fill:var(--ce)}}.c.c2d{fill:var(--c1);animation-name:c2d}@keyframes c2e{25.15%{fill:var(--c1)}25.17%,100%{fill:var(--ce)}}.c.c2e{fill:var(--c1);animation-name:c2e}@keyframes c2f{29.27%{fill:var(--c1)}29.29%,100%{fill:var(--ce)}}.c.c2f{fill:var(--c1);animation-name:c2f}@keyframes c2g{29.06%{fill:var(--c1)}29.08%,100%{fill:var(--ce)}}.c.c2g{fill:var(--c1);animation-name:c2g}@keyframes c2h{67.45%{fill:var(--c3)}67.47%,100%{fill:var(--ce)}}.c.c2h{fill:var(--c3);animation-name:c2h}@keyframes c2i{52.05%{fill:var(--c2)}52.07%,100%{fill:var(--ce)}}.c.c2i{fill:var(--c2);animation-name:c2i}.u{transform-origin:0 0;transform:scale(0,1);animation:none linear 46100ms infinite}@keyframes u0{4.11%{transform:scale(0.000,1)}4.13%,4.98%{transform:scale(0.016,1)}5%,5.41%{transform:scale(0.033,1)}5.43%,5.63%{transform:scale(0.049,1)}5.65%,5.85%{transform:scale(0.066,1)}5.87%,6.28%{transform:scale(0.082,1)}6.3%,7.37%{transform:scale(0.098,1)}7.39%,8.23%{transform:scale(0.115,1)}8.25%,8.88%{transform:scale(0.131,1)}8.9%,9.32%{transform:scale(0.148,1)}9.34%,9.75%{transform:scale(0.164,1)}9.77%,10.84%{transform:scale(0.180,1)}10.86%,11.05%{transform:scale(0.197,1)}11.07%,11.27%{transform:scale(0.213,1)}11.29%,11.49%{transform:scale(0.230,1)}11.51%,11.92%{transform:scale(0.246,1)}11.94%,12.14%{transform:scale(0.262,1)}12.16%,12.79%{transform:scale(0.279,1)}12.81%,13.87%{transform:scale(0.295,1)}13.89%,14.31%{transform:scale(0.311,1)}14.33%,14.74%{transform:scale(0.328,1)}14.76%,14.96%{transform:scale(0.344,1)}14.98%,15.39%{transform:scale(0.361,1)}15.41%,15.61%{transform:scale(0.377,1)}15.63%,16.04%{transform:scale(0.393,1)}16.06%,16.26%{transform:scale(0.410,1)}16.28%,17.34%{transform:scale(0.426,1)}17.36%,17.56%{transform:scale(0.443,1)}17.58%,17.78%{transform:scale(0.459,1)}17.8%,17.99%{transform:scale(0.475,1)}18.01%,19.3%{transform:scale(0.492,1)}19.32%,20.6%{transform:scale(0.508,1)}20.62%,20.81%{transform:scale(0.525,1)}20.83%,21.03%{transform:scale(0.541,1)}21.05%,21.47%{transform:scale(0.557,1)}21.49%,21.9%{transform:scale(0.574,1)}21.92%,22.33%{transform:scale(0.590,1)}22.35%,22.98%{transform:scale(0.607,1)}23%,23.42%{transform:scale(0.623,1)}23.44%,24.29%{transform:scale(0.639,1)}24.31%,24.5%{transform:scale(0.656,1)}24.52%,24.72%{transform:scale(0.672,1)}24.74%,25.15%{transform:scale(0.689,1)}25.17%,25.37%{transform:scale(0.705,1)}25.39%,25.59%{transform:scale(0.721,1)}25.61%,25.8%{transform:scale(0.738,1)}25.82%,26.02%{transform:scale(0.754,1)}26.04%,26.89%{transform:scale(0.770,1)}26.91%,29.06%{transform:scale(0.787,1)}29.08%,29.27%{transform:scale(0.803,1)}29.29%,29.49%{transform:scale(0.820,1)}29.51%,29.71%{transform:scale(0.836,1)}29.73%,30.58%{transform:scale(0.852,1)}30.6%,30.79%{transform:scale(0.869,1)}30.81%,31.01%{transform:scale(0.885,1)}31.03%,31.23%{transform:scale(0.902,1)}31.25%,32.53%{transform:scale(0.918,1)}32.55%,34.26%{transform:scale(0.934,1)}34.28%,38.38%{transform:scale(0.951,1)}38.4%,38.82%{transform:scale(0.967,1)}38.84%,45.54%{transform:scale(0.984,1)}45.56%,100%{transform:scale(1.000,1)}}.u.u0{fill:var(--c1);animation-name:u0;transform-origin:0.0px 0}@keyframes u1{45.76%{transform:scale(0.000,1)}45.78%,46.19%{transform:scale(0.077,1)}46.21%,46.84%{transform:scale(0.154,1)}46.86%,47.06%{transform:scale(0.231,1)}47.08%,47.93%{transform:scale(0.308,1)}47.95%,48.8%{transform:scale(0.385,1)}48.82%,49.66%{transform:scale(0.462,1)}49.68%,50.97%{transform:scale(0.538,1)}50.99%,52.05%{transform:scale(0.615,1)}52.07%,55.52%{transform:scale(0.692,1)}55.54%,58.34%{transform:scale(0.769,1)}58.36%,58.78%{transform:scale(0.846,1)}58.8%,60.08%{transform:scale(0.923,1)}60.1%,100%{transform:scale(1.000,1)}}.u.u1{fill:var(--c2);animation-name:u1;transform-origin:568.4px 0}@keyframes u2{60.73%{transform:scale(0.000,1)}60.75%,61.6%{transform:scale(0.143,1)}61.62%,65.07%{transform:scale(0.286,1)}65.09%,67.02%{transform:scale(0.429,1)}67.04%,67.45%{transform:scale(0.571,1)}67.47%,68.54%{transform:scale(0.714,1)}68.56%,76.35%{transform:scale(0.857,1)}76.37%,100%{transform:scale(1.000,1)}}.u.u2{fill:var(--c3);animation-name:u2;transform-origin:689.6px 0}@keyframes u3{77.21%{transform:scale(0.000,1)}77.23%,78.08%{transform:scale(0.100,1)}78.1%,79.38%{transform:scale(0.200,1)}79.4%,85.89%{transform:scale(0.300,1)}85.91%,86.11%{transform:scale(0.400,1)}86.13%,86.32%{transform:scale(0.500,1)}86.34%,86.76%{transform:scale(0.600,1)}86.78%,86.97%{transform:scale(0.700,1)}86.99%,87.84%{transform:scale(0.800,1)}87.86%,90.23%{transform:scale(0.900,1)}90.25%,100%{transform:scale(1.000,1)}}.u.u3{fill:var(--c4);animation-name:u3;transform-origin:754.8px 0}.s{shape-rendering:geometricPrecision;fill:var(--cs);animation:none linear 46100ms infinite}@keyframes s0{0%,99.78%{transform:translate(0px,-16px)}0.22%{transform:translate(0px,0px)}4.34%{transform:translate(304px,0px)}4.99%,77.01%{transform:translate(304px,48px)}5.21%{transform:translate(288px,48px)}5.64%{transform:translate(288px,80px)}5.86%{transform:translate(272px,80px)}6.07%{transform:translate(272px,64px)}6.51%{transform:translate(240px,64px)}6.94%{transform:translate(240px,32px)}8.68%{transform:translate(368px,32px)}8.89%{transform:translate(368px,16px)}9.33%{transform:translate(400px,16px)}9.54%{transform:translate(400px,0px)}9.76%{transform:translate(384px,0px)}9.98%{transform:translate(384px,16px)}11.71%{transform:translate(512px,16px)}11.93%{transform:translate(512px,0px)}12.8%{transform:translate(576px,0px)}13.02%{transform:translate(576px,16px)}13.45%{transform:translate(544px,16px)}13.88%{transform:translate(544px,48px)}14.53%{transform:translate(496px,48px)}14.75%{transform:translate(496px,64px)}15.18%,59.44%{transform:translate(464px,64px)}16.05%{transform:translate(464px,0px)}16.27%,57.92%{transform:translate(480px,0px)}16.49%{transform:translate(480px,16px)}16.7%{transform:translate(464px,16px)}17.14%,59.22%,60.95%{transform:translate(464px,48px)}17.35%,59%{transform:translate(448px,48px)}17.79%{transform:translate(448px,80px)}20.61%{transform:translate(656px,80px)}20.82%{transform:translate(656px,64px)}21.04%,49.24%{transform:translate(672px,64px)}21.69%,55.1%{transform:translate(672px,16px)}21.91%,33.19%{transform:translate(656px,16px)}22.34%{transform:translate(656px,48px)}23.21%{transform:translate(720px,48px)}23.86%,65.51%{transform:translate(720px,96px)}24.95%{transform:translate(800px,96px)}25.38%,45.34%{transform:translate(800px,64px)}25.81%,26.68%,44.9%,51.41%,66.59%{transform:translate(768px,64px)}26.03%{transform:translate(768px,48px)}26.25%,86.55%{transform:translate(752px,48px)}26.46%{transform:translate(752px,64px)}27.11%,44.47%,66.16%{transform:translate(768px,96px)}27.98%{transform:translate(832px,96px)}28.85%{transform:translate(832px,32px)}29.07%{transform:translate(816px,32px)}29.28%{transform:translate(816px,16px)}29.5%,45.99%{transform:translate(800px,16px)}29.93%{transform:translate(800px,-16px)}30.37%{transform:translate(768px,-16px)}30.59%,31.45%,89.15%{transform:translate(768px,0px)}30.8%{transform:translate(752px,0px)}31.02%{transform:translate(752px,16px)}31.24%{transform:translate(768px,16px)}32.1%,47.72%{transform:translate(720px,0px)}32.32%{transform:translate(720px,16px)}34.27%{transform:translate(656px,96px)}34.49%{transform:translate(640px,96px)}34.71%{transform:translate(640px,80px)}38.39%{transform:translate(368px,80px)}38.61%{transform:translate(368px,96px)}38.83%{transform:translate(384px,96px)}39.05%{transform:translate(384px,80px)}43.17%{transform:translate(688px,80px)}43.38%{transform:translate(688px,96px)}46.85%{transform:translate(736px,16px)}47.07%{transform:translate(736px,32px)}47.29%{transform:translate(720px,32px)}47.94%,69.63%{transform:translate(704px,0px)}48.81%{transform:translate(704px,64px)}49.67%{transform:translate(672px,96px)}50.76%{transform:translate(752px,96px)}50.98%{transform:translate(752px,80px)}51.19%,88.07%{transform:translate(768px,80px)}52.28%{transform:translate(832px,64px)}52.93%{transform:translate(832px,16px)}55.31%{transform:translate(672px,0px)}58.35%{transform:translate(480px,32px)}58.79%{transform:translate(448px,32px)}60.09%{transform:translate(512px,64px)}60.3%{transform:translate(512px,48px)}61.61%{transform:translate(464px,96px)}64.86%{transform:translate(704px,96px)}65.08%{transform:translate(704px,80px)}65.29%{transform:translate(720px,80px)}66.81%{transform:translate(784px,64px)}67.03%{transform:translate(784px,48px)}67.46%{transform:translate(816px,48px)}68.11%{transform:translate(816px,0px)}69.85%{transform:translate(704px,16px)}75.27%{transform:translate(304px,16px)}75.49%{transform:translate(304px,32px)}76.14%{transform:translate(256px,32px)}76.36%{transform:translate(256px,48px)}77.22%{transform:translate(304px,64px)}77.44%{transform:translate(288px,64px)}78.09%{transform:translate(288px,16px)}78.31%{transform:translate(272px,16px)}79.39%{transform:translate(272px,96px)}85.68%{transform:translate(736px,96px)}86.33%{transform:translate(736px,48px)}86.77%{transform:translate(752px,32px)}87.2%{transform:translate(784px,32px)}87.85%{transform:translate(784px,80px)}98.7%{transform:translate(64px,0px)}98.92%{transform:translate(64px,-16px)}}.s.s0{transform:translate(0px,-16px);animation-name:s0}@keyframes s1{0%,99.78%{transform:translate(16px,-16px)}0.22%{transform:translate(0px,-16px)}0.43%{transform:translate(0px,0px)}4.56%{transform:translate(304px,0px)}5.21%,77.22%{transform:translate(304px,48px)}5.42%{transform:translate(288px,48px)}5.86%{transform:translate(288px,80px)}6.07%{transform:translate(272px,80px)}6.29%{transform:translate(272px,64px)}6.72%{transform:translate(240px,64px)}7.16%{transform:translate(240px,32px)}8.89%{transform:translate(368px,32px)}9.11%{transform:translate(368px,16px)}9.54%{transform:translate(400px,16px)}9.76%{transform:translate(400px,0px)}9.98%{transform:translate(384px,0px)}10.2%{transform:translate(384px,16px)}11.93%{transform:translate(512px,16px)}12.15%{transform:translate(512px,0px)}13.02%{transform:translate(576px,0px)}13.23%{transform:translate(576px,16px)}13.67%{transform:translate(544px,16px)}14.1%{transform:translate(544px,48px)}14.75%{transform:translate(496px,48px)}14.97%{transform:translate(496px,64px)}15.4%,59.65%{transform:translate(464px,64px)}16.27%{transform:translate(464px,0px)}16.49%,58.13%{transform:translate(480px,0px)}16.7%{transform:translate(480px,16px)}16.92%{transform:translate(464px,16px)}17.35%,59.44%,61.17%{transform:translate(464px,48px)}17.57%,59.22%{transform:translate(448px,48px)}18%{transform:translate(448px,80px)}20.82%{transform:translate(656px,80px)}21.04%{transform:translate(656px,64px)}21.26%,49.46%{transform:translate(672px,64px)}21.91%,55.31%{transform:translate(672px,16px)}22.13%,33.41%{transform:translate(656px,16px)}22.56%{transform:translate(656px,48px)}23.43%{transform:translate(720px,48px)}24.08%,65.73%{transform:translate(720px,96px)}25.16%{transform:translate(800px,96px)}25.6%,45.55%{transform:translate(800px,64px)}26.03%,26.9%,45.12%,51.63%,66.81%{transform:translate(768px,64px)}26.25%{transform:translate(768px,48px)}26.46%,86.77%{transform:translate(752px,48px)}26.68%{transform:translate(752px,64px)}27.33%,44.69%,66.38%{transform:translate(768px,96px)}28.2%{transform:translate(832px,96px)}29.07%{transform:translate(832px,32px)}29.28%{transform:translate(816px,32px)}29.5%{transform:translate(816px,16px)}29.72%,46.2%{transform:translate(800px,16px)}30.15%{transform:translate(800px,-16px)}30.59%{transform:translate(768px,-16px)}30.8%,31.67%,89.37%{transform:translate(768px,0px)}31.02%{transform:translate(752px,0px)}31.24%{transform:translate(752px,16px)}31.45%{transform:translate(768px,16px)}32.32%,47.94%{transform:translate(720px,0px)}32.54%{transform:translate(720px,16px)}34.49%{transform:translate(656px,96px)}34.71%{transform:translate(640px,96px)}34.92%{transform:translate(640px,80px)}38.61%{transform:translate(368px,80px)}38.83%{transform:translate(368px,96px)}39.05%{transform:translate(384px,96px)}39.26%{transform:translate(384px,80px)}43.38%{transform:translate(688px,80px)}43.6%{transform:translate(688px,96px)}47.07%{transform:translate(736px,16px)}47.29%{transform:translate(736px,32px)}47.51%{transform:translate(720px,32px)}48.16%,69.85%{transform:translate(704px,0px)}49.02%{transform:translate(704px,64px)}49.89%{transform:translate(672px,96px)}50.98%{transform:translate(752px,96px)}51.19%{transform:translate(752px,80px)}51.41%,88.29%{transform:translate(768px,80px)}52.49%{transform:translate(832px,64px)}53.15%{transform:translate(832px,16px)}55.53%{transform:translate(672px,0px)}58.57%{transform:translate(480px,32px)}59%{transform:translate(448px,32px)}60.3%{transform:translate(512px,64px)}60.52%{transform:translate(512px,48px)}61.82%{transform:translate(464px,96px)}65.08%{transform:translate(704px,96px)}65.29%{transform:translate(704px,80px)}65.51%{transform:translate(720px,80px)}67.03%{transform:translate(784px,64px)}67.25%{transform:translate(784px,48px)}67.68%{transform:translate(816px,48px)}68.33%{transform:translate(816px,0px)}70.07%{transform:translate(704px,16px)}75.49%{transform:translate(304px,16px)}75.7%{transform:translate(304px,32px)}76.36%{transform:translate(256px,32px)}76.57%{transform:translate(256px,48px)}77.44%{transform:translate(304px,64px)}77.66%{transform:translate(288px,64px)}78.31%{transform:translate(288px,16px)}78.52%{transform:translate(272px,16px)}79.61%{transform:translate(272px,96px)}85.9%{transform:translate(736px,96px)}86.55%{transform:translate(736px,48px)}86.98%{transform:translate(752px,32px)}87.42%{transform:translate(784px,32px)}88.07%{transform:translate(784px,80px)}98.92%{transform:translate(64px,0px)}99.13%{transform:translate(64px,-16px)}}.s.s1{transform:translate(16px,-16px);animation-name:s1}@keyframes s2{0%,99.78%{transform:translate(32px,-16px)}0.43%{transform:translate(0px,-16px)}0.65%{transform:translate(0px,0px)}4.77%{transform:translate(304px,0px)}5.42%,77.44%{transform:translate(304px,48px)}5.64%{transform:translate(288px,48px)}6.07%{transform:translate(288px,80px)}6.29%{transform:translate(272px,80px)}6.51%{transform:translate(272px,64px)}6.94%{transform:translate(240px,64px)}7.38%{transform:translate(240px,32px)}9.11%{transform:translate(368px,32px)}9.33%{transform:translate(368px,16px)}9.76%{transform:translate(400px,16px)}9.98%{transform:translate(400px,0px)}10.2%{transform:translate(384px,0px)}10.41%{transform:translate(384px,16px)}12.15%{transform:translate(512px,16px)}12.36%{transform:translate(512px,0px)}13.23%{transform:translate(576px,0px)}13.45%{transform:translate(576px,16px)}13.88%{transform:translate(544px,16px)}14.32%{transform:translate(544px,48px)}14.97%{transform:translate(496px,48px)}15.18%{transform:translate(496px,64px)}15.62%,59.87%{transform:translate(464px,64px)}16.49%{transform:translate(464px,0px)}16.7%,58.35%{transform:translate(480px,0px)}16.92%{transform:translate(480px,16px)}17.14%{transform:translate(464px,16px)}17.57%,59.65%,61.39%{transform:translate(464px,48px)}17.79%,59.44%{transform:translate(448px,48px)}18.22%{transform:translate(448px,80px)}21.04%{transform:translate(656px,80px)}21.26%{transform:translate(656px,64px)}21.48%,49.67%{transform:translate(672px,64px)}22.13%,55.53%{transform:translate(672px,16px)}22.34%,33.62%{transform:translate(656px,16px)}22.78%{transform:translate(656px,48px)}23.64%{transform:translate(720px,48px)}24.3%,65.94%{transform:translate(720px,96px)}25.38%{transform:translate(800px,96px)}25.81%,45.77%{transform:translate(800px,64px)}26.25%,27.11%,45.34%,51.84%,67.03%{transform:translate(768px,64px)}26.46%{transform:translate(768px,48px)}26.68%,86.98%{transform:translate(752px,48px)}26.9%{transform:translate(752px,64px)}27.55%,44.9%,66.59%{transform:translate(768px,96px)}28.42%{transform:translate(832px,96px)}29.28%{transform:translate(832px,32px)}29.5%{transform:translate(816px,32px)}29.72%{transform:translate(816px,16px)}29.93%,46.42%{transform:translate(800px,16px)}30.37%{transform:translate(800px,-16px)}30.8%{transform:translate(768px,-16px)}31.02%,31.89%,89.59%{transform:translate(768px,0px)}31.24%{transform:translate(752px,0px)}31.45%{transform:translate(752px,16px)}31.67%{transform:translate(768px,16px)}32.54%,48.16%{transform:translate(720px,0px)}32.75%{transform:translate(720px,16px)}34.71%{transform:translate(656px,96px)}34.92%{transform:translate(640px,96px)}35.14%{transform:translate(640px,80px)}38.83%{transform:translate(368px,80px)}39.05%{transform:translate(368px,96px)}39.26%{transform:translate(384px,96px)}39.48%{transform:translate(384px,80px)}43.6%{transform:translate(688px,80px)}43.82%{transform:translate(688px,96px)}47.29%{transform:translate(736px,16px)}47.51%{transform:translate(736px,32px)}47.72%{transform:translate(720px,32px)}48.37%,70.07%{transform:translate(704px,0px)}49.24%{transform:translate(704px,64px)}50.11%{transform:translate(672px,96px)}51.19%{transform:translate(752px,96px)}51.41%{transform:translate(752px,80px)}51.63%,88.5%{transform:translate(768px,80px)}52.71%{transform:translate(832px,64px)}53.36%{transform:translate(832px,16px)}55.75%{transform:translate(672px,0px)}58.79%{transform:translate(480px,32px)}59.22%{transform:translate(448px,32px)}60.52%{transform:translate(512px,64px)}60.74%{transform:translate(512px,48px)}62.04%{transform:translate(464px,96px)}65.29%{transform:translate(704px,96px)}65.51%{transform:translate(704px,80px)}65.73%{transform:translate(720px,80px)}67.25%{transform:translate(784px,64px)}67.46%{transform:translate(784px,48px)}67.9%{transform:translate(816px,48px)}68.55%{transform:translate(816px,0px)}70.28%{transform:translate(704px,16px)}75.7%{transform:translate(304px,16px)}75.92%{transform:translate(304px,32px)}76.57%{transform:translate(256px,32px)}76.79%{transform:translate(256px,48px)}77.66%{transform:translate(304px,64px)}77.87%{transform:translate(288px,64px)}78.52%{transform:translate(288px,16px)}78.74%{transform:translate(272px,16px)}79.83%{transform:translate(272px,96px)}86.12%{transform:translate(736px,96px)}86.77%{transform:translate(736px,48px)}87.2%{transform:translate(752px,32px)}87.64%{transform:translate(784px,32px)}88.29%{transform:translate(784px,80px)}99.13%{transform:translate(64px,0px)}99.35%{transform:translate(64px,-16px)}}.s.s2{transform:translate(32px,-16px);animation-name:s2}@keyframes s3{0%,99.78%{transform:translate(48px,-16px)}0.65%{transform:translate(0px,-16px)}0.87%{transform:translate(0px,0px)}4.99%{transform:translate(304px,0px)}5.64%,77.66%{transform:translate(304px,48px)}5.86%{transform:translate(288px,48px)}6.29%{transform:translate(288px,80px)}6.51%{transform:translate(272px,80px)}6.72%{transform:translate(272px,64px)}7.16%{transform:translate(240px,64px)}7.59%{transform:translate(240px,32px)}9.33%{transform:translate(368px,32px)}9.54%{transform:translate(368px,16px)}9.98%{transform:translate(400px,16px)}10.2%{transform:translate(400px,0px)}10.41%{transform:translate(384px,0px)}10.63%{transform:translate(384px,16px)}12.36%{transform:translate(512px,16px)}12.58%{transform:translate(512px,0px)}13.45%{transform:translate(576px,0px)}13.67%{transform:translate(576px,16px)}14.1%{transform:translate(544px,16px)}14.53%{transform:translate(544px,48px)}15.18%{transform:translate(496px,48px)}15.4%{transform:translate(496px,64px)}15.84%,60.09%{transform:translate(464px,64px)}16.7%{transform:translate(464px,0px)}16.92%,58.57%{transform:translate(480px,0px)}17.14%{transform:translate(480px,16px)}17.35%{transform:translate(464px,16px)}17.79%,59.87%,61.61%{transform:translate(464px,48px)}18%,59.65%{transform:translate(448px,48px)}18.44%{transform:translate(448px,80px)}21.26%{transform:translate(656px,80px)}21.48%{transform:translate(656px,64px)}21.69%,49.89%{transform:translate(672px,64px)}22.34%,55.75%{transform:translate(672px,16px)}22.56%,33.84%{transform:translate(656px,16px)}22.99%{transform:translate(656px,48px)}23.86%{transform:translate(720px,48px)}24.51%,66.16%{transform:translate(720px,96px)}25.6%{transform:translate(800px,96px)}26.03%,45.99%{transform:translate(800px,64px)}26.46%,27.33%,45.55%,52.06%,67.25%{transform:translate(768px,64px)}26.68%{transform:translate(768px,48px)}26.9%,87.2%{transform:translate(752px,48px)}27.11%{transform:translate(752px,64px)}27.77%,45.12%,66.81%{transform:translate(768px,96px)}28.63%{transform:translate(832px,96px)}29.5%{transform:translate(832px,32px)}29.72%{transform:translate(816px,32px)}29.93%{transform:translate(816px,16px)}30.15%,46.64%{transform:translate(800px,16px)}30.59%{transform:translate(800px,-16px)}31.02%{transform:translate(768px,-16px)}31.24%,32.1%,89.8%{transform:translate(768px,0px)}31.45%{transform:translate(752px,0px)}31.67%{transform:translate(752px,16px)}31.89%{transform:translate(768px,16px)}32.75%,48.37%{transform:translate(720px,0px)}32.97%{transform:translate(720px,16px)}34.92%{transform:translate(656px,96px)}35.14%{transform:translate(640px,96px)}35.36%{transform:translate(640px,80px)}39.05%{transform:translate(368px,80px)}39.26%{transform:translate(368px,96px)}39.48%{transform:translate(384px,96px)}39.7%{transform:translate(384px,80px)}43.82%{transform:translate(688px,80px)}44.03%{transform:translate(688px,96px)}47.51%{transform:translate(736px,16px)}47.72%{transform:translate(736px,32px)}47.94%{transform:translate(720px,32px)}48.59%,70.28%{transform:translate(704px,0px)}49.46%{transform:translate(704px,64px)}50.33%{transform:translate(672px,96px)}51.41%{transform:translate(752px,96px)}51.63%{transform:translate(752px,80px)}51.84%,88.72%{transform:translate(768px,80px)}52.93%{transform:translate(832px,64px)}53.58%{transform:translate(832px,16px)}55.97%{transform:translate(672px,0px)}59%{transform:translate(480px,32px)}59.44%{transform:translate(448px,32px)}60.74%{transform:translate(512px,64px)}60.95%{transform:translate(512px,48px)}62.26%{transform:translate(464px,96px)}65.51%{transform:translate(704px,96px)}65.73%{transform:translate(704px,80px)}65.94%{transform:translate(720px,80px)}67.46%{transform:translate(784px,64px)}67.68%{transform:translate(784px,48px)}68.11%{transform:translate(816px,48px)}68.76%{transform:translate(816px,0px)}70.5%{transform:translate(704px,16px)}75.92%{transform:translate(304px,16px)}76.14%{transform:translate(304px,32px)}76.79%{transform:translate(256px,32px)}77.01%{transform:translate(256px,48px)}77.87%{transform:translate(304px,64px)}78.09%{transform:translate(288px,64px)}78.74%{transform:translate(288px,16px)}78.96%{transform:translate(272px,16px)}80.04%{transform:translate(272px,96px)}86.33%{transform:translate(736px,96px)}86.98%{transform:translate(736px,48px)}87.42%{transform:translate(752px,32px)}87.85%{transform:translate(784px,32px)}88.5%{transform:translate(784px,80px)}99.35%{transform:translate(64px,0px)}99.57%{transform:translate(64px,-16px)}}.s.s3{transform:translate(48px,-16px);animation-name:s3}</style><rect class="c" x="2" y="2" rx="2" ry="2"/><rect class="c" x="2" y="18" rx="2" ry="2"/><rect class="c" x="2" y="34" rx="2" ry="2"/><rect class="c" x="2" y="50" rx="2" ry="2"/><rect class="c" x="2" y="66" rx="2" ry="2"/><rect class="c" x="2" y="82" rx="2" ry="2"/><rect class="c" x="2" y="98" rx="2" ry="2"/><rect class="c" x="18" y="2" rx="2" ry="2"/><rect class="c" x="18" y="18" rx="2" ry="2"/><rect class="c" x="18" y="34" rx="2" ry="2"/><rect class="c" x="18" y="50" rx="2" ry="2"/><rect class="c" x="18" y="66" rx="2" ry="2"/><rect class="c" x="18" y="82" rx="2" ry="2"/><rect class="c" x="18" y="98" rx="2" ry="2"/><rect class="c" x="34" y="2" rx="2" ry="2"/><rect class="c" x="34" y="18" rx="2" ry="2"/><rect class="c" x="34" y="34" rx="2" ry="2"/><rect class="c" x="34" y="50" rx="2" ry="2"/><rect class="c" x="34" y="66" rx="2" ry="2"/><rect class="c" x="34" y="82" rx="2" ry="2"/><rect class="c" x="34" y="98" rx="2" ry="2"/><rect class="c" x="50" y="2" rx="2" ry="2"/><rect class="c" x="50" y="18" rx="2" ry="2"/><rect class="c" x="50" y="34" rx="2" ry="2"/><rect class="c" x="50" y="50" rx="2" ry="2"/><rect class="c" x="50" y="66" rx="2" ry="2"/><rect class="c" x="50" y="82" rx="2" ry="2"/><rect class="c" x="50" y="98" rx="2" ry="2"/><rect class="c" x="66" y="2" rx="2" ry="2"/><rect class="c" x="66" y="18" rx="2" ry="2"/><rect class="c" x="66" y="34" rx="2" ry="2"/><rect class="c" x="66" y="50" rx="2" ry="2"/><rect class="c" x="66" y="66" rx="2" ry="2"/><rect class="c" x="66" y="82" rx="2" ry="2"/><rect class="c" x="66" y="98" rx="2" ry="2"/><rect class="c" x="82" y="2" rx="2" ry="2"/><rect class="c" x="82" y="18" rx="2" ry="2"/><rect class="c" x="82" y="34" rx="2" ry="2"/><rect class="c" x="82" y="50" rx="2" ry="2"/><rect class="c" x="82" y="66" rx="2" ry="2"/><rect class="c" x="82" y="82" rx="2" ry="2"/><rect class="c" x="82" y="98" rx="2" ry="2"/><rect class="c" x="98" y="2" rx="2" ry="2"/><rect class="c" x="98" y="18" rx="2" ry="2"/><rect class="c" x="98" y="34" rx="2" ry="2"/><rect class="c" x="98" y="50" rx="2" ry="2"/><rect class="c" x="98" y="66" rx="2" ry="2"/><rect class="c" x="98" y="82" rx="2" ry="2"/><rect class="c" x="98" y="98" rx="2" ry="2"/><rect class="c" x="114" y="2" rx="2" ry="2"/><rect class="c" x="114" y="18" rx="2" ry="2"/><rect class="c" x="114" y="34" rx="2" ry="2"/><rect class="c" x="114" y="50" rx="2" ry="2"/><rect class="c" x="114" y="66" rx="2" ry="2"/><rect class="c" x="114" y="82" rx="2" ry="2"/><rect class="c" x="114" y="98" rx="2" ry="2"/><rect class="c" x="130" y="2" rx="2" ry="2"/><rect class="c" x="130" y="18" rx="2" ry="2"/><rect class="c" x="130" y="34" rx="2" ry="2"/><rect class="c" x="130" y="50" rx="2" ry="2"/><rect class="c" x="130" y="66" rx="2" ry="2"/><rect class="c" x="130" y="82" rx="2" ry="2"/><rect class="c" x="130" y="98" rx="2" ry="2"/><rect class="c" x="146" y="2" rx="2" ry="2"/><rect class="c" x="146" y="18" rx="2" ry="2"/><rect class="c" x="146" y="34" rx="2" ry="2"/><rect class="c" x="146" y="50" rx="2" ry="2"/><rect class="c" x="146" y="66" rx="2" ry="2"/><rect class="c" x="146" y="82" rx="2" ry="2"/><rect class="c" x="146" y="98" rx="2" ry="2"/><rect class="c" x="162" y="2" rx="2" ry="2"/><rect class="c" x="162" y="18" rx="2" ry="2"/><rect class="c" x="162" y="34" rx="2" ry="2"/><rect class="c" x="162" y="50" rx="2" ry="2"/><rect class="c" x="162" y="66" rx="2" ry="2"/><rect class="c" x="162" y="82" rx="2" ry="2"/><rect class="c" x="162" y="98" rx="2" ry="2"/><rect class="c" x="178" y="2" rx="2" ry="2"/><rect class="c" x="178" y="18" rx="2" ry="2"/><rect class="c" x="178" y="34" rx="2" ry="2"/><rect class="c" x="178" y="50" rx="2" ry="2"/><rect class="c" x="178" y="66" rx="2" ry="2"/><rect class="c" x="178" y="82" rx="2" ry="2"/><rect class="c" x="178" y="98" rx="2" ry="2"/><rect class="c" x="194" y="2" rx="2" ry="2"/><rect class="c" x="194" y="18" rx="2" ry="2"/><rect class="c" x="194" y="34" rx="2" ry="2"/><rect class="c" x="194" y="50" rx="2" ry="2"/><rect class="c" x="194" y="66" rx="2" ry="2"/><rect class="c" x="194" y="82" rx="2" ry="2"/><rect class="c" x="194" y="98" rx="2" ry="2"/><rect class="c" x="210" y="2" rx="2" ry="2"/><rect class="c" x="210" y="18" rx="2" ry="2"/><rect class="c" x="210" y="34" rx="2" ry="2"/><rect class="c" x="210" y="50" rx="2" ry="2"/><rect class="c" x="210" y="66" rx="2" ry="2"/><rect class="c" x="210" y="82" rx="2" ry="2"/><rect class="c" x="210" y="98" rx="2" ry="2"/><rect class="c" x="226" y="2" rx="2" ry="2"/><rect class="c" x="226" y="18" rx="2" ry="2"/><rect class="c" x="226" y="34" rx="2" ry="2"/><rect class="c" x="226" y="50" rx="2" ry="2"/><rect class="c" x="226" y="66" rx="2" ry="2"/><rect class="c" x="226" y="82" rx="2" ry="2"/><rect class="c" x="226" y="98" rx="2" ry="2"/><rect class="c" x="242" y="2" rx="2" ry="2"/><rect class="c" x="242" y="18" rx="2" ry="2"/><rect class="c" x="242" y="34" rx="2" ry="2"/><rect class="c" x="242" y="50" rx="2" ry="2"/><rect class="c" x="242" y="66" rx="2" ry="2"/><rect class="c" x="242" y="82" rx="2" ry="2"/><rect class="c" x="242" y="98" rx="2" ry="2"/><rect class="c" x="258" y="2" rx="2" ry="2"/><rect class="c" x="258" y="18" rx="2" ry="2"/><rect class="c" x="258" y="34" rx="2" ry="2"/><rect class="c c0" x="258" y="50" rx="2" ry="2"/><rect class="c c1" x="258" y="66" rx="2" ry="2"/><rect class="c" x="258" y="82" rx="2" ry="2"/><rect class="c" x="258" y="98" rx="2" ry="2"/><rect class="c" x="274" y="2" rx="2" ry="2"/><rect class="c" x="274" y="18" rx="2" ry="2"/><rect class="c c2" x="274" y="34" rx="2" ry="2"/><rect class="c" x="274" y="50" rx="2" ry="2"/><rect class="c" x="274" y="66" rx="2" ry="2"/><rect class="c c3" x="274" y="82" rx="2" ry="2"/><rect class="c c4" x="274" y="98" rx="2" ry="2"/><rect class="c c5" x="290" y="2" rx="2" ry="2"/><rect class="c c6" x="290" y="18" rx="2" ry="2"/><rect class="c" x="290" y="34" rx="2" ry="2"/><rect class="c" x="290" y="50" rx="2" ry="2"/><rect class="c c7" x="290" y="66" rx="2" ry="2"/><rect class="c c8" x="290" y="82" rx="2" ry="2"/><rect class="c" x="290" y="98" rx="2" ry="2"/><rect class="c" x="306" y="2" rx="2" ry="2"/><rect class="c" x="306" y="18" rx="2" ry="2"/><rect class="c" x="306" y="34" rx="2" ry="2"/><rect class="c c9" x="306" y="50" rx="2" ry="2"/><rect class="c ca" x="306" y="66" rx="2" ry="2"/><rect class="c" x="306" y="82" rx="2" ry="2"/><rect class="c" x="306" y="98" rx="2" ry="2"/><rect class="c" x="322" y="2" rx="2" ry="2"/><rect class="c" x="322" y="18" rx="2" ry="2"/><rect class="c" x="322" y="34" rx="2" ry="2"/><rect class="c" x="322" y="50" rx="2" ry="2"/><rect class="c" x="322" y="66" rx="2" ry="2"/><rect class="c" x="322" y="82" rx="2" ry="2"/><rect class="c" x="322" y="98" rx="2" ry="2"/><rect class="c" x="338" y="2" rx="2" ry="2"/><rect class="c" x="338" y="18" rx="2" ry="2"/><rect class="c cb" x="338" y="34" rx="2" ry="2"/><rect class="c" x="338" y="50" rx="2" ry="2"/><rect class="c" x="338" y="66" rx="2" ry="2"/><rect class="c" x="338" y="82" rx="2" ry="2"/><rect class="c" x="338" y="98" rx="2" ry="2"/><rect class="c" x="354" y="2" rx="2" ry="2"/><rect class="c" x="354" y="18" rx="2" ry="2"/><rect class="c" x="354" y="34" rx="2" ry="2"/><rect class="c" x="354" y="50" rx="2" ry="2"/><rect class="c" x="354" y="66" rx="2" ry="2"/><rect class="c" x="354" y="82" rx="2" ry="2"/><rect class="c" x="354" y="98" rx="2" ry="2"/><rect class="c" x="370" y="2" rx="2" ry="2"/><rect class="c cc" x="370" y="18" rx="2" ry="2"/><rect class="c" x="370" y="34" rx="2" ry="2"/><rect class="c" x="370" y="50" rx="2" ry="2"/><rect class="c" x="370" y="66" rx="2" ry="2"/><rect class="c cd" x="370" y="82" rx="2" ry="2"/><rect class="c" x="370" y="98" rx="2" ry="2"/><rect class="c ce" x="386" y="2" rx="2" ry="2"/><rect class="c" x="386" y="18" rx="2" ry="2"/><rect class="c" x="386" y="34" rx="2" ry="2"/><rect class="c" x="386" y="50" rx="2" ry="2"/><rect class="c" x="386" y="66" rx="2" ry="2"/><rect class="c" x="386" y="82" rx="2" ry="2"/><rect class="c cf" x="386" y="98" rx="2" ry="2"/><rect class="c" x="402" y="2" rx="2" ry="2"/><rect class="c cg" x="402" y="18" rx="2" ry="2"/><rect class="c" x="402" y="34" rx="2" ry="2"/><rect class="c" x="402" y="50" rx="2" ry="2"/><rect class="c" x="402" y="66" rx="2" ry="2"/><rect class="c" x="402" y="82" rx="2" ry="2"/><rect class="c" x="402" y="98" rx="2" ry="2"/><rect class="c" x="418" y="2" rx="2" ry="2"/><rect class="c" x="418" y="18" rx="2" ry="2"/><rect class="c" x="418" y="34" rx="2" ry="2"/><rect class="c" x="418" y="50" rx="2" ry="2"/><rect class="c" x="418" y="66" rx="2" ry="2"/><rect class="c" x="418" y="82" rx="2" ry="2"/><rect class="c" x="418" y="98" rx="2" ry="2"/><rect class="c" x="434" y="2" rx="2" ry="2"/><rect class="c" x="434" y="18" rx="2" ry="2"/><rect class="c" x="434" y="34" rx="2" ry="2"/><rect class="c" x="434" y="50" rx="2" ry="2"/><rect class="c" x="434" y="66" rx="2" ry="2"/><rect class="c" x="434" y="82" rx="2" ry="2"/><rect class="c" x="434" y="98" rx="2" ry="2"/><rect class="c" x="450" y="2" rx="2" ry="2"/><rect class="c ch" x="450" y="18" rx="2" ry="2"/><rect class="c ci" x="450" y="34" rx="2" ry="2"/><rect class="c cj" x="450" y="50" rx="2" ry="2"/><rect class="c ck" x="450" y="66" rx="2" ry="2"/><rect class="c cl" x="450" y="82" rx="2" ry="2"/><rect class="c" x="450" y="98" rx="2" ry="2"/><rect class="c cm" x="466" y="2" rx="2" ry="2"/><rect class="c cn" x="466" y="18" rx="2" ry="2"/><rect class="c co" x="466" y="34" rx="2" ry="2"/><rect class="c cp" x="466" y="50" rx="2" ry="2"/><rect class="c" x="466" y="66" rx="2" ry="2"/><rect class="c cq" x="466" y="82" rx="2" ry="2"/><rect class="c cr" x="466" y="98" rx="2" ry="2"/><rect class="c cs" x="482" y="2" rx="2" ry="2"/><rect class="c ct" x="482" y="18" rx="2" ry="2"/><rect class="c cu" x="482" y="34" rx="2" ry="2"/><rect class="c cv" x="482" y="50" rx="2" ry="2"/><rect class="c cw" x="482" y="66" rx="2" ry="2"/><rect class="c" x="482" y="82" rx="2" ry="2"/><rect class="c" x="482" y="98" rx="2" ry="2"/><rect class="c" x="498" y="2" rx="2" ry="2"/><rect class="c cx" x="498" y="18" rx="2" ry="2"/><rect class="c" x="498" y="34" rx="2" ry="2"/><rect class="c" x="498" y="50" rx="2" ry="2"/><rect class="c cy" x="498" y="66" rx="2" ry="2"/><rect class="c" x="498" y="82" rx="2" ry="2"/><rect class="c" x="498" y="98" rx="2" ry="2"/><rect class="c cz" x="514" y="2" rx="2" ry="2"/><rect class="c" x="514" y="18" rx="2" ry="2"/><rect class="c" x="514" y="34" rx="2" ry="2"/><rect class="c c10" x="514" y="50" rx="2" ry="2"/><rect class="c c11" x="514" y="66" rx="2" ry="2"/><rect class="c" x="514" y="82" rx="2" ry="2"/><rect class="c" x="514" y="98" rx="2" ry="2"/><rect class="c c12" x="530" y="2" rx="2" ry="2"/><rect class="c" x="530" y="18" rx="2" ry="2"/><rect class="c" x="530" y="34" rx="2" ry="2"/><rect class="c" x="530" y="50" rx="2" ry="2"/><rect class="c" x="530" y="66" rx="2" ry="2"/><rect class="c" x="530" y="82" rx="2" ry="2"/><rect class="c" x="530" y="98" rx="2" ry="2"/><rect class="c" x="546" y="2" rx="2" ry="2"/><rect class="c" x="546" y="18" rx="2" ry="2"/><rect class="c" x="546" y="34" rx="2" ry="2"/><rect class="c c13" x="546" y="50" rx="2" ry="2"/><rect class="c" x="546" y="66" rx="2" ry="2"/><rect class="c" x="546" y="82" rx="2" ry="2"/><rect class="c" x="546" y="98" rx="2" ry="2"/><rect class="c" x="562" y="2" rx="2" ry="2"/><rect class="c" x="562" y="18" rx="2" ry="2"/><rect class="c" x="562" y="34" rx="2" ry="2"/><rect class="c" x="562" y="50" rx="2" ry="2"/><rect class="c" x="562" y="66" rx="2" ry="2"/><rect class="c c14" x="562" y="82" rx="2" ry="2"/><rect class="c" x="562" y="98" rx="2" ry="2"/><rect class="c c15" x="578" y="2" rx="2" ry="2"/><rect class="c" x="578" y="18" rx="2" ry="2"/><rect class="c" x="578" y="34" rx="2" ry="2"/><rect class="c" x="578" y="50" rx="2" ry="2"/><rect class="c" x="578" y="66" rx="2" ry="2"/><rect class="c" x="578" y="82" rx="2" ry="2"/><rect class="c" x="578" y="98" rx="2" ry="2"/><rect class="c" x="594" y="2" rx="2" ry="2"/><rect class="c" x="594" y="18" rx="2" ry="2"/><rect class="c" x="594" y="34" rx="2" ry="2"/><rect class="c" x="594" y="50" rx="2" ry="2"/><rect class="c" x="594" y="66" rx="2" ry="2"/><rect class="c" x="594" y="82" rx="2" ry="2"/><rect class="c" x="594" y="98" rx="2" ry="2"/><rect class="c" x="610" y="2" rx="2" ry="2"/><rect class="c" x="610" y="18" rx="2" ry="2"/><rect class="c" x="610" y="34" rx="2" ry="2"/><rect class="c" x="610" y="50" rx="2" ry="2"/><rect class="c" x="610" y="66" rx="2" ry="2"/><rect class="c" x="610" y="82" rx="2" ry="2"/><rect class="c" x="610" y="98" rx="2" ry="2"/><rect class="c" x="626" y="2" rx="2" ry="2"/><rect class="c" x="626" y="18" rx="2" ry="2"/><rect class="c" x="626" y="34" rx="2" ry="2"/><rect class="c" x="626" y="50" rx="2" ry="2"/><rect class="c" x="626" y="66" rx="2" ry="2"/><rect class="c" x="626" y="82" rx="2" ry="2"/><rect class="c" x="626" y="98" rx="2" ry="2"/><rect class="c" x="642" y="2" rx="2" ry="2"/><rect class="c" x="642" y="18" rx="2" ry="2"/><rect class="c" x="642" y="34" rx="2" ry="2"/><rect class="c" x="642" y="50" rx="2" ry="2"/><rect class="c" x="642" y="66" rx="2" ry="2"/><rect class="c" x="642" y="82" rx="2" ry="2"/><rect class="c" x="642" y="98" rx="2" ry="2"/><rect class="c c16" x="658" y="2" rx="2" ry="2"/><rect class="c c17" x="658" y="18" rx="2" ry="2"/><rect class="c" x="658" y="34" rx="2" ry="2"/><rect class="c c18" x="658" y="50" rx="2" ry="2"/><rect class="c c19" x="658" y="66" rx="2" ry="2"/><rect class="c c1a" x="658" y="82" rx="2" ry="2"/><rect class="c c1b" x="658" y="98" rx="2" ry="2"/><rect class="c" x="674" y="2" rx="2" ry="2"/><rect class="c" x="674" y="18" rx="2" ry="2"/><rect class="c c1c" x="674" y="34" rx="2" ry="2"/><rect class="c" x="674" y="50" rx="2" ry="2"/><rect class="c c1d" x="674" y="66" rx="2" ry="2"/><rect class="c" x="674" y="82" rx="2" ry="2"/><rect class="c c1e" x="674" y="98" rx="2" ry="2"/><rect class="c c1f" x="690" y="2" rx="2" ry="2"/><rect class="c" x="690" y="18" rx="2" ry="2"/><rect class="c" x="690" y="34" rx="2" ry="2"/><rect class="c" x="690" y="50" rx="2" ry="2"/><rect class="c" x="690" y="66" rx="2" ry="2"/><rect class="c" x="690" y="82" rx="2" ry="2"/><rect class="c" x="690" y="98" rx="2" ry="2"/><rect class="c c1g" x="706" y="2" rx="2" ry="2"/><rect class="c c1h" x="706" y="18" rx="2" ry="2"/><rect class="c" x="706" y="34" rx="2" ry="2"/><rect class="c c1i" x="706" y="50" rx="2" ry="2"/><rect class="c c1j" x="706" y="66" rx="2" ry="2"/><rect class="c c1k" x="706" y="82" rx="2" ry="2"/><rect class="c" x="706" y="98" rx="2" ry="2"/><rect class="c" x="722" y="2" rx="2" ry="2"/><rect class="c" x="722" y="18" rx="2" ry="2"/><rect class="c" x="722" y="34" rx="2" ry="2"/><rect class="c" x="722" y="50" rx="2" ry="2"/><rect class="c c1l" x="722" y="66" rx="2" ry="2"/><rect class="c" x="722" y="82" rx="2" ry="2"/><rect class="c" x="722" y="98" rx="2" ry="2"/><rect class="c" x="738" y="2" rx="2" ry="2"/><rect class="c c1m" x="738" y="18" rx="2" ry="2"/><rect class="c c1n" x="738" y="34" rx="2" ry="2"/><rect class="c c1o" x="738" y="50" rx="2" ry="2"/><rect class="c c1p" x="738" y="66" rx="2" ry="2"/><rect class="c c1q" x="738" y="82" rx="2" ry="2"/><rect class="c" x="738" y="98" rx="2" ry="2"/><rect class="c c1r" x="754" y="2" rx="2" ry="2"/><rect class="c c1s" x="754" y="18" rx="2" ry="2"/><rect class="c c1t" x="754" y="34" rx="2" ry="2"/><rect class="c" x="754" y="50" rx="2" ry="2"/><rect class="c" x="754" y="66" rx="2" ry="2"/><rect class="c c1u" x="754" y="82" rx="2" ry="2"/><rect class="c c1v" x="754" y="98" rx="2" ry="2"/><rect class="c c1w" x="770" y="2" rx="2" ry="2"/><rect class="c c1x" x="770" y="18" rx="2" ry="2"/><rect class="c c1y" x="770" y="34" rx="2" ry="2"/><rect class="c c1z" x="770" y="50" rx="2" ry="2"/><rect class="c c20" x="770" y="66" rx="2" ry="2"/><rect class="c c21" x="770" y="82" rx="2" ry="2"/><rect class="c c22" x="770" y="98" rx="2" ry="2"/><rect class="c c23" x="786" y="2" rx="2" ry="2"/><rect class="c c24" x="786" y="18" rx="2" ry="2"/><rect class="c" x="786" y="34" rx="2" ry="2"/><rect class="c c25" x="786" y="50" rx="2" ry="2"/><rect class="c c26" x="786" y="66" rx="2" ry="2"/><rect class="c c27" x="786" y="82" rx="2" ry="2"/><rect class="c c28" x="786" y="98" rx="2" ry="2"/><rect class="c c29" x="802" y="2" rx="2" ry="2"/><rect class="c c2a" x="802" y="18" rx="2" ry="2"/><rect class="c c2b" x="802" y="34" rx="2" ry="2"/><rect class="c c2c" x="802" y="50" rx="2" ry="2"/><rect class="c c2d" x="802" y="66" rx="2" ry="2"/><rect class="c c2e" x="802" y="82" rx="2" ry="2"/><rect class="c" x="802" y="98" rx="2" ry="2"/><rect class="c" x="818" y="2" rx="2" ry="2"/><rect class="c c2f" x="818" y="18" rx="2" ry="2"/><rect class="c c2g" x="818" y="34" rx="2" ry="2"/><rect class="c c2h" x="818" y="50" rx="2" ry="2"/><rect class="c c2i" x="818" y="66" rx="2" ry="2"/><rect class="c" x="818" y="82" rx="2" ry="2"/><rect class="c" x="818" y="98" rx="2" ry="2"/><rect class="c" x="834" y="2" rx="2" ry="2"/><rect class="u u0" height="12" width="569.0" x="0.0" y="144"/><rect class="u u1" height="12" width="121.7" x="568.4" y="144"/><rect class="u u2" height="12" width="65.8" x="689.6" y="144"/><rect class="u u3" height="12" width="93.8" x="754.8" y="144"/><rect class="s s0" x="0.8" y="0.8" width="14.4" height="14.4" rx="4.5" ry="4.5"/><rect class="s s1" x="1.8" y="1.8" width="12.3" height="12.3" rx="4.1" ry="4.1"/><rect class="s s2" x="2.6" y="2.6" width="10.8" height="10.8" rx="3.6" ry="3.6"/><rect class="s s3" x="3.0" y="3.0" width="9.9" height="9.9" rx="3.3" ry="3.3"/></svg>